<?xml version="1.0" encoding="UTF-8" standalone="no"?>
<svg
   xmlns:dc="http://purl.org/dc/elements/1.1/"
   xmlns:cc="http://creativecommons.org/ns#"
   xmlns:rdf="http://www.w3.org/1999/02/22-rdf-syntax-ns#"
   xmlns:svg="http://www.w3.org/2000/svg"
   xmlns="http://www.w3.org/2000/svg"
   xmlns:sodipodi="http://sodipodi.sourceforge.net/DTD/sodipodi-0.dtd"
   xmlns:inkscape="http://www.inkscape.org/namespaces/inkscape"
   inkscape:version="1.0 (4035a4fb49, 2020-05-01)"
   sodipodi:docname="愛心.svg"
   id="svg8"
   version="1.1"
   viewBox="0 0 210 297"
   height="297mm"
   width="210mm">
  <defs
     id="defs2" />
  <sodipodi:namedview
     inkscape:document-rotation="0"
     inkscape:window-maximized="1"
     inkscape:window-y="-9"
     inkscape:window-x="-9"
     inkscape:window-height="1013"
     inkscape:window-width="1920"
     showgrid="false"
     inkscape:current-layer="layer1"
     inkscape:document-units="mm"
     inkscape:cy="156.40484"
     inkscape:cx="-443.79657"
     inkscape:zoom="0.12374369"
     inkscape:pageshadow="2"
     inkscape:pageopacity="0.0"
     borderopacity="1.0"
     bordercolor="#666666"
     pagecolor="#ffffff"
     id="base" />
  <metadata
     id="metadata5">
    <rdf:RDF>
      <cc:Work
         rdf:about="">
        <dc:format>image/svg+xml</dc:format>
        <dc:type
           rdf:resource="http://purl.org/dc/dcmitype/StillImage" />
      </cc:Work>
    </rdf:RDF>
  </metadata>
  <g
     id="layer1"
     inkscape:groupmode="layer"
     inkscape:label="Layer 1">
    <path
       inkscape:export-ydpi="27.871149"
       inkscape:export-xdpi="27.871149"
       inkscape:tile-y0="57.394954"
       inkscape:tile-x0="-695.48854"
       inkscape:tile-h="106.82334"
       inkscape:tile-w="120.19642"
       inkscape:tile-cy="110.80663"
       inkscape:tile-cx="-635.39034"
       sodipodi:nodetypes="scscs"
       inkscape:connector-curvature="0"
       id="path815"
       d="m -669.03024,91.825688 c 0,33.191322 -47.21937,61.167292 -60.09821,72.392612 -10.20614,-10.15624 -60.09821,-39.20129 -60.09821,-72.392612 0,-33.191325 44.01214,-49.941969 60.09821,-15.19693 19.82785,-33.675961 60.09821,-17.994395 60.09821,15.19693 z"
       style="fill:#ff0000;stroke:none;stroke-width:3.26499987;stroke-linecap:round;stroke-linejoin:round;fill-opacity:0.58823532" />
    <path
       inkscape:export-ydpi="27.871149"
       inkscape:export-xdpi="27.871149"
       style="fill:#ff0000;stroke:none;stroke-width:3.26499987;stroke-linecap:round;stroke-linejoin:round;fill-opacity:0.58823532"
       d="m -669.03024,337.51938 c 0,33.19132 -47.21937,61.16729 -60.09821,72.39261 -10.20614,-10.15624 -60.09821,-39.20129 -60.09821,-72.39261 0,-33.19133 44.01214,-49.94197 60.09821,-15.19693 19.82785,-33.67596 60.09821,-17.9944 60.09821,15.19693 z"
       id="use1568"
       inkscape:connector-curvature="0"
       sodipodi:nodetypes="scscs"
       inkscape:tile-x0="-695.48854"
       inkscape:tile-y0="57.394954" />
    <path
       inkscape:export-ydpi="27.871149"
       inkscape:export-xdpi="27.871149"
       style="fill:#ff0000;stroke:none;stroke-width:3.26499987;stroke-linecap:round;stroke-linejoin:round;fill-opacity:0.58823532"
       d="m -669.03024,583.21306 c 0,33.19132 -47.21937,61.16729 -60.09821,72.39261 -10.20614,-10.15624 -60.09821,-39.20129 -60.09821,-72.39261 0,-33.19133 44.01214,-49.94197 60.09821,-15.19693 19.82785,-33.67596 60.09821,-17.9944 60.09821,15.19693 z"
       id="use1572"
       inkscape:connector-curvature="0"
       sodipodi:nodetypes="scscs"
       inkscape:tile-x0="-695.48854"
       inkscape:tile-y0="57.394954" />
    <path
       inkscape:export-ydpi="27.871149"
       inkscape:export-xdpi="27.871149"
       style="fill:#ff0000;stroke:none;stroke-width:3.26499987;stroke-linecap:round;stroke-linejoin:round;fill-opacity:0.58823532"
       d="m -669.03024,828.90675 c 0,33.19132 -47.21937,61.16729 -60.09821,72.39261 -10.20614,-10.15624 -60.09821,-39.20129 -60.09821,-72.39261 0,-33.19133 44.01214,-49.94197 60.09821,-15.19693 19.82785,-33.67596 60.09821,-17.9944 60.09821,15.19693 z"
       id="use1576"
       inkscape:connector-curvature="0"
       sodipodi:nodetypes="scscs"
       inkscape:tile-x0="-695.48854"
       inkscape:tile-y0="57.394954" />
    <path
       inkscape:export-ydpi="27.871149"
       inkscape:export-xdpi="27.871149"
       style="fill:#ff0000;stroke:none;stroke-width:3.26499987;stroke-linecap:round;stroke-linejoin:round;fill-opacity:0.58823532"
       d="m -669.03024,1074.6004 c 0,33.1914 -47.21937,61.1673 -60.09821,72.3927 -10.20614,-10.1563 -60.09821,-39.2013 -60.09821,-72.3927 0,-33.1913 44.01214,-49.9419 60.09821,-15.1969 19.82785,-33.676 60.09821,-17.9944 60.09821,15.1969 z"
       id="use1580"
       inkscape:connector-curvature="0"
       sodipodi:nodetypes="scscs"
       inkscape:tile-x0="-695.48854"
       inkscape:tile-y0="57.394954" />
    <path
       inkscape:export-ydpi="27.871149"
       inkscape:export-xdpi="27.871149"
       style="fill:#ff0000;stroke:none;stroke-width:3.26499987;stroke-linecap:round;stroke-linejoin:round;fill-opacity:0.58823532"
       d="m -669.03024,1320.2941 c 0,33.1913 -47.21937,61.1673 -60.09821,72.3926 -10.20614,-10.1562 -60.09821,-39.2013 -60.09821,-72.3926 0,-33.1913 44.01214,-49.942 60.09821,-15.1969 19.82785,-33.676 60.09821,-17.9944 60.09821,15.1969 z"
       id="use1584"
       inkscape:connector-curvature="0"
       sodipodi:nodetypes="scscs"
       inkscape:tile-x0="-695.48854"
       inkscape:tile-y0="57.394954" />
    <path
       inkscape:export-ydpi="27.871149"
       inkscape:export-xdpi="27.871149"
       style="fill:#ff0000;stroke:none;stroke-width:3.26499987;stroke-linecap:round;stroke-linejoin:round;fill-opacity:0.58823532"
       d="m -530.80436,214.67253 c 0,33.19132 -47.21937,61.16729 -60.09821,72.39261 -10.20614,-10.15624 -60.09821,-39.20129 -60.09821,-72.39261 0,-33.19133 44.01214,-49.94197 60.09821,-15.19693 19.82785,-33.67596 60.09821,-17.9944 60.09821,15.19693 z"
       id="use1590"
       inkscape:connector-curvature="0"
       sodipodi:nodetypes="scscs"
       inkscape:tile-x0="-695.48854"
       inkscape:tile-y0="57.394954" />
    <path
       inkscape:export-ydpi="27.871149"
       inkscape:export-xdpi="27.871149"
       style="fill:#ff0000;stroke:none;stroke-width:3.26499987;stroke-linecap:round;stroke-linejoin:round;fill-opacity:0.58823532"
       d="m -530.80436,460.36622 c 0,33.19132 -47.21937,61.16729 -60.09821,72.39261 -10.20614,-10.15624 -60.09821,-39.20129 -60.09821,-72.39261 0,-33.19133 44.01214,-49.94197 60.09821,-15.19693 19.82785,-33.67596 60.09821,-17.9944 60.09821,15.19693 z"
       id="use1594"
       inkscape:connector-curvature="0"
       sodipodi:nodetypes="scscs"
       inkscape:tile-x0="-695.48854"
       inkscape:tile-y0="57.394954" />
    <path
       inkscape:export-ydpi="27.871149"
       inkscape:export-xdpi="27.871149"
       style="fill:#ff0000;stroke:none;stroke-width:3.26499987;stroke-linecap:round;stroke-linejoin:round;fill-opacity:0.58823532"
       d="m -530.80436,706.05991 c 0,33.19132 -47.21937,61.16729 -60.09821,72.39261 -10.20614,-10.15624 -60.09821,-39.20129 -60.09821,-72.39261 0,-33.19133 44.01214,-49.94197 60.09821,-15.19693 19.82785,-33.67596 60.09821,-17.9944 60.09821,15.19693 z"
       id="use1598"
       inkscape:connector-curvature="0"
       sodipodi:nodetypes="scscs"
       inkscape:tile-x0="-695.48854"
       inkscape:tile-y0="57.394954" />
    <path
       inkscape:export-ydpi="27.871149"
       inkscape:export-xdpi="27.871149"
       style="fill:#ff0000;stroke:none;stroke-width:3.26499987;stroke-linecap:round;stroke-linejoin:round;fill-opacity:0.58823532"
       d="m -530.80436,951.7536 c 0,33.19132 -47.21937,61.1673 -60.09821,72.3926 -10.20614,-10.1562 -60.09821,-39.20128 -60.09821,-72.3926 0,-33.19133 44.01214,-49.94197 60.09821,-15.19693 19.82785,-33.67596 60.09821,-17.9944 60.09821,15.19693 z"
       id="use1602"
       inkscape:connector-curvature="0"
       sodipodi:nodetypes="scscs"
       inkscape:tile-x0="-695.48854"
       inkscape:tile-y0="57.394954" />
    <path
       inkscape:export-ydpi="27.871149"
       inkscape:export-xdpi="27.871149"
       style="fill:#ff0000;stroke:none;stroke-width:3.26499987;stroke-linecap:round;stroke-linejoin:round;fill-opacity:0.58823532"
       d="m -530.80436,1197.4473 c 0,33.1913 -47.21937,61.1673 -60.09821,72.3926 -10.20614,-10.1562 -60.09821,-39.2013 -60.09821,-72.3926 0,-33.1913 44.01214,-49.942 60.09821,-15.1969 19.82785,-33.676 60.09821,-17.9944 60.09821,15.1969 z"
       id="use1606"
       inkscape:connector-curvature="0"
       sodipodi:nodetypes="scscs"
       inkscape:tile-x0="-695.48854"
       inkscape:tile-y0="57.394954" />
    <path
       inkscape:export-ydpi="27.871149"
       inkscape:export-xdpi="27.871149"
       style="fill:#ff0000;stroke:none;stroke-width:3.26499987;stroke-linecap:round;stroke-linejoin:round;fill-opacity:0.58823532"
       d="m -530.80436,1443.141 c 0,33.1913 -47.21937,61.1673 -60.09821,72.3926 -10.20614,-10.1562 -60.09821,-39.2013 -60.09821,-72.3926 0,-33.1913 44.01214,-49.942 60.09821,-15.1969 19.82785,-33.676 60.09821,-17.9944 60.09821,15.1969 z"
       id="use1610"
       inkscape:connector-curvature="0"
       sodipodi:nodetypes="scscs"
       inkscape:tile-x0="-695.48854"
       inkscape:tile-y0="57.394954" />
    <path
       inkscape:export-ydpi="27.871149"
       inkscape:export-xdpi="27.871149"
       style="fill:#ff0000;stroke:none;stroke-width:3.26499987;stroke-linecap:round;stroke-linejoin:round;fill-opacity:0.58823532"
       d="m -392.57848,91.825688 c 0,33.191322 -47.21937,61.167292 -60.09821,72.392612 -10.20614,-10.15624 -60.09821,-39.20129 -60.09821,-72.392612 0,-33.191325 44.01214,-49.941969 60.09821,-15.19693 19.82785,-33.675961 60.09821,-17.994395 60.09821,15.19693 z"
       id="use1612"
       inkscape:connector-curvature="0"
       sodipodi:nodetypes="scscs"
       inkscape:tile-x0="-695.48854"
       inkscape:tile-y0="57.394954" />
    <path
       inkscape:export-ydpi="27.871149"
       inkscape:export-xdpi="27.871149"
       style="fill:#ff0000;stroke:none;stroke-width:3.26499987;stroke-linecap:round;stroke-linejoin:round;fill-opacity:0.58823532"
       d="m -392.57848,337.51938 c 0,33.19132 -47.21937,61.16729 -60.09821,72.39261 -10.20614,-10.15624 -60.09821,-39.20129 -60.09821,-72.39261 0,-33.19133 44.01214,-49.94197 60.09821,-15.19693 19.82785,-33.67596 60.09821,-17.9944 60.09821,15.19693 z"
       id="use1616"
       inkscape:connector-curvature="0"
       sodipodi:nodetypes="scscs"
       inkscape:tile-x0="-695.48854"
       inkscape:tile-y0="57.394954" />
    <path
       inkscape:export-ydpi="27.871149"
       inkscape:export-xdpi="27.871149"
       style="fill:#ff0000;stroke:none;stroke-width:3.26499987;stroke-linecap:round;stroke-linejoin:round;fill-opacity:0.58823532"
       d="m -392.57848,583.21306 c 0,33.19132 -47.21937,61.16729 -60.09821,72.39261 -10.20614,-10.15624 -60.09821,-39.20129 -60.09821,-72.39261 0,-33.19133 44.01214,-49.94197 60.09821,-15.19693 19.82785,-33.67596 60.09821,-17.9944 60.09821,15.19693 z"
       id="use1620"
       inkscape:connector-curvature="0"
       sodipodi:nodetypes="scscs"
       inkscape:tile-x0="-695.48854"
       inkscape:tile-y0="57.394954" />
    <path
       inkscape:export-ydpi="27.871149"
       inkscape:export-xdpi="27.871149"
       style="fill:#ff0000;stroke:none;stroke-width:3.26499987;stroke-linecap:round;stroke-linejoin:round;fill-opacity:0.58823532"
       d="m -392.57848,828.90675 c 0,33.19132 -47.21937,61.16729 -60.09821,72.39261 -10.20614,-10.15624 -60.09821,-39.20129 -60.09821,-72.39261 0,-33.19133 44.01214,-49.94197 60.09821,-15.19693 19.82785,-33.67596 60.09821,-17.9944 60.09821,15.19693 z"
       id="use1624"
       inkscape:connector-curvature="0"
       sodipodi:nodetypes="scscs"
       inkscape:tile-x0="-695.48854"
       inkscape:tile-y0="57.394954" />
    <path
       inkscape:export-ydpi="27.871149"
       inkscape:export-xdpi="27.871149"
       style="fill:#ff0000;stroke:none;stroke-width:3.26499987;stroke-linecap:round;stroke-linejoin:round;fill-opacity:0.58823532"
       d="m -392.57848,1074.6004 c 0,33.1914 -47.21937,61.1673 -60.09821,72.3927 -10.20614,-10.1563 -60.09821,-39.2013 -60.09821,-72.3927 0,-33.1913 44.01214,-49.9419 60.09821,-15.1969 19.82785,-33.676 60.09821,-17.9944 60.09821,15.1969 z"
       id="use1628"
       inkscape:connector-curvature="0"
       sodipodi:nodetypes="scscs"
       inkscape:tile-x0="-695.48854"
       inkscape:tile-y0="57.394954" />
    <path
       inkscape:export-ydpi="27.871149"
       inkscape:export-xdpi="27.871149"
       style="fill:#ff0000;stroke:none;stroke-width:3.26499987;stroke-linecap:round;stroke-linejoin:round;fill-opacity:0.58823532"
       d="m -392.57848,1320.2941 c 0,33.1913 -47.21937,61.1673 -60.09821,72.3926 -10.20614,-10.1562 -60.09821,-39.2013 -60.09821,-72.3926 0,-33.1913 44.01214,-49.942 60.09821,-15.1969 19.82785,-33.676 60.09821,-17.9944 60.09821,15.1969 z"
       id="use1632"
       inkscape:connector-curvature="0"
       sodipodi:nodetypes="scscs"
       inkscape:tile-x0="-695.48854"
       inkscape:tile-y0="57.394954" />
    <path
       inkscape:export-ydpi="27.871149"
       inkscape:export-xdpi="27.871149"
       style="fill:#ff0000;stroke:none;stroke-width:3.26499987;stroke-linecap:round;stroke-linejoin:round;fill-opacity:0.58823532"
       d="m -254.3526,214.67253 c 0,33.19132 -47.21937,61.16729 -60.09821,72.39261 -10.20614,-10.15624 -60.09821,-39.20129 -60.09821,-72.39261 0,-33.19133 44.01214,-49.94197 60.09821,-15.19693 19.82785,-33.67596 60.09821,-17.9944 60.09821,15.19693 z"
       id="use1638"
       inkscape:connector-curvature="0"
       sodipodi:nodetypes="scscs"
       inkscape:tile-x0="-695.48854"
       inkscape:tile-y0="57.394954" />
    <path
       inkscape:export-ydpi="27.871149"
       inkscape:export-xdpi="27.871149"
       style="fill:#ff0000;stroke:none;stroke-width:3.26499987;stroke-linecap:round;stroke-linejoin:round;fill-opacity:0.58823532"
       d="m -254.3526,460.36622 c 0,33.19132 -47.21937,61.16729 -60.09821,72.39261 -10.20614,-10.15624 -60.09821,-39.20129 -60.09821,-72.39261 0,-33.19133 44.01214,-49.94197 60.09821,-15.19693 19.82785,-33.67596 60.09821,-17.9944 60.09821,15.19693 z"
       id="use1642"
       inkscape:connector-curvature="0"
       sodipodi:nodetypes="scscs"
       inkscape:tile-x0="-695.48854"
       inkscape:tile-y0="57.394954" />
    <path
       inkscape:export-ydpi="27.871149"
       inkscape:export-xdpi="27.871149"
       style="fill:#ff0000;stroke:none;stroke-width:3.26499987;stroke-linecap:round;stroke-linejoin:round;fill-opacity:0.58823532"
       d="m -254.3526,706.05991 c 0,33.19132 -47.21937,61.16729 -60.09821,72.39261 -10.20614,-10.15624 -60.09821,-39.20129 -60.09821,-72.39261 0,-33.19133 44.01214,-49.94197 60.09821,-15.19693 19.82785,-33.67596 60.09821,-17.9944 60.09821,15.19693 z"
       id="use1646"
       inkscape:connector-curvature="0"
       sodipodi:nodetypes="scscs"
       inkscape:tile-x0="-695.48854"
       inkscape:tile-y0="57.394954" />
    <path
       inkscape:export-ydpi="27.871149"
       inkscape:export-xdpi="27.871149"
       style="fill:#ff0000;stroke:none;stroke-width:3.26499987;stroke-linecap:round;stroke-linejoin:round;fill-opacity:0.58823532"
       d="m -254.3526,951.7536 c 0,33.19132 -47.21937,61.1673 -60.09821,72.3926 -10.20614,-10.1562 -60.09821,-39.20128 -60.09821,-72.3926 0,-33.19133 44.01214,-49.94197 60.09821,-15.19693 19.82785,-33.67596 60.09821,-17.9944 60.09821,15.19693 z"
       id="use1650"
       inkscape:connector-curvature="0"
       sodipodi:nodetypes="scscs"
       inkscape:tile-x0="-695.48854"
       inkscape:tile-y0="57.394954" />
    <path
       inkscape:export-ydpi="27.871149"
       inkscape:export-xdpi="27.871149"
       style="fill:#ff0000;stroke:none;stroke-width:3.26499987;stroke-linecap:round;stroke-linejoin:round;fill-opacity:0.58823532"
       d="m -254.3526,1197.4473 c 0,33.1913 -47.21937,61.1673 -60.09821,72.3926 -10.20614,-10.1562 -60.09821,-39.2013 -60.09821,-72.3926 0,-33.1913 44.01214,-49.942 60.09821,-15.1969 19.82785,-33.676 60.09821,-17.9944 60.09821,15.1969 z"
       id="use1654"
       inkscape:connector-curvature="0"
       sodipodi:nodetypes="scscs"
       inkscape:tile-x0="-695.48854"
       inkscape:tile-y0="57.394954" />
    <path
       inkscape:export-ydpi="27.871149"
       inkscape:export-xdpi="27.871149"
       style="fill:#ff0000;stroke:none;stroke-width:3.26499987;stroke-linecap:round;stroke-linejoin:round;fill-opacity:0.58823532"
       d="m -254.3526,1443.141 c 0,33.1913 -47.21937,61.1673 -60.09821,72.3926 -10.20614,-10.1562 -60.09821,-39.2013 -60.09821,-72.3926 0,-33.1913 44.01214,-49.942 60.09821,-15.1969 19.82785,-33.676 60.09821,-17.9944 60.09821,15.1969 z"
       id="use1658"
       inkscape:connector-curvature="0"
       sodipodi:nodetypes="scscs"
       inkscape:tile-x0="-695.48854"
       inkscape:tile-y0="57.394954" />
    <path
       inkscape:export-ydpi="27.871149"
       inkscape:export-xdpi="27.871149"
       style="fill:#ff0000;stroke:none;stroke-width:3.26499987;stroke-linecap:round;stroke-linejoin:round;fill-opacity:0.58823532"
       d="m -116.12672,91.825688 c 0,33.191322 -47.21937,61.167292 -60.09821,72.392612 -10.20614,-10.15624 -60.09821,-39.20129 -60.09821,-72.392612 0,-33.191325 44.01214,-49.941969 60.09821,-15.19693 19.82785,-33.675961 60.09821,-17.994395 60.09821,15.19693 z"
       id="use1660"
       inkscape:connector-curvature="0"
       sodipodi:nodetypes="scscs"
       inkscape:tile-x0="-695.48854"
       inkscape:tile-y0="57.394954" />
    <path
       inkscape:export-ydpi="27.871149"
       inkscape:export-xdpi="27.871149"
       style="fill:#ff0000;stroke:none;stroke-width:3.26499987;stroke-linecap:round;stroke-linejoin:round;fill-opacity:0.58823532"
       d="m -116.12672,337.51938 c 0,33.19132 -47.21937,61.16729 -60.09821,72.39261 -10.20614,-10.15624 -60.09821,-39.20129 -60.09821,-72.39261 0,-33.19133 44.01214,-49.94197 60.09821,-15.19693 19.82785,-33.67596 60.09821,-17.9944 60.09821,15.19693 z"
       id="use1664"
       inkscape:connector-curvature="0"
       sodipodi:nodetypes="scscs"
       inkscape:tile-x0="-695.48854"
       inkscape:tile-y0="57.394954" />
    <path
       inkscape:export-ydpi="27.871149"
       inkscape:export-xdpi="27.871149"
       style="fill:#ff0000;stroke:none;stroke-width:3.26499987;stroke-linecap:round;stroke-linejoin:round;fill-opacity:0.58823532"
       d="m -116.12672,583.21306 c 0,33.19132 -47.21937,61.16729 -60.09821,72.39261 -10.20614,-10.15624 -60.09821,-39.20129 -60.09821,-72.39261 0,-33.19133 44.01214,-49.94197 60.09821,-15.19693 19.82785,-33.67596 60.09821,-17.9944 60.09821,15.19693 z"
       id="use1668"
       inkscape:connector-curvature="0"
       sodipodi:nodetypes="scscs"
       inkscape:tile-x0="-695.48854"
       inkscape:tile-y0="57.394954" />
    <path
       inkscape:export-ydpi="27.871149"
       inkscape:export-xdpi="27.871149"
       style="fill:#ff0000;stroke:none;stroke-width:3.26499987;stroke-linecap:round;stroke-linejoin:round;fill-opacity:0.58823532"
       d="m -116.12672,828.90675 c 0,33.19132 -47.21937,61.16729 -60.09821,72.39261 -10.20614,-10.15624 -60.09821,-39.20129 -60.09821,-72.39261 0,-33.19133 44.01214,-49.94197 60.09821,-15.19693 19.82785,-33.67596 60.09821,-17.9944 60.09821,15.19693 z"
       id="use1672"
       inkscape:connector-curvature="0"
       sodipodi:nodetypes="scscs"
       inkscape:tile-x0="-695.48854"
       inkscape:tile-y0="57.394954" />
    <path
       inkscape:export-ydpi="27.871149"
       inkscape:export-xdpi="27.871149"
       style="fill:#ff0000;stroke:none;stroke-width:3.26499987;stroke-linecap:round;stroke-linejoin:round;fill-opacity:0.58823532"
       d="m -116.12672,1074.6004 c 0,33.1914 -47.21937,61.1673 -60.09821,72.3927 -10.20614,-10.1563 -60.09821,-39.2013 -60.09821,-72.3927 0,-33.1913 44.01214,-49.9419 60.09821,-15.1969 19.82785,-33.676 60.09821,-17.9944 60.09821,15.1969 z"
       id="use1676"
       inkscape:connector-curvature="0"
       sodipodi:nodetypes="scscs"
       inkscape:tile-x0="-695.48854"
       inkscape:tile-y0="57.394954" />
    <path
       inkscape:export-ydpi="27.871149"
       inkscape:export-xdpi="27.871149"
       style="fill:#ff0000;stroke:none;stroke-width:3.26499987;stroke-linecap:round;stroke-linejoin:round;fill-opacity:0.58823532"
       d="m -116.12672,1320.2941 c 0,33.1913 -47.21937,61.1673 -60.09821,72.3926 -10.20614,-10.1562 -60.09821,-39.2013 -60.09821,-72.3926 0,-33.1913 44.01214,-49.942 60.09821,-15.1969 19.82785,-33.676 60.09821,-17.9944 60.09821,15.1969 z"
       id="use1680"
       inkscape:connector-curvature="0"
       sodipodi:nodetypes="scscs"
       inkscape:tile-x0="-695.48854"
       inkscape:tile-y0="57.394954" />
    <path
       inkscape:export-ydpi="27.871149"
       inkscape:export-xdpi="27.871149"
       style="fill:#ff0000;stroke:none;stroke-width:3.26499987;stroke-linecap:round;stroke-linejoin:round;fill-opacity:0.58823532"
       d="m 22.099165,214.67253 c 0,33.19132 -47.21937,61.16729 -60.09821,72.39261 -10.20614,-10.15624 -60.09821,-39.20129 -60.09821,-72.39261 0,-33.19133 44.01214,-49.94197 60.09821,-15.19693 19.82785,-33.67596 60.09821,-17.9944 60.09821,15.19693 z"
       id="use1686"
       inkscape:connector-curvature="0"
       sodipodi:nodetypes="scscs"
       inkscape:tile-x0="-695.48854"
       inkscape:tile-y0="57.394954" />
    <path
       inkscape:export-ydpi="27.871149"
       inkscape:export-xdpi="27.871149"
       style="fill:#ff0000;stroke:none;stroke-width:3.26499987;stroke-linecap:round;stroke-linejoin:round;fill-opacity:0.58823532"
       d="m 22.099165,460.36622 c 0,33.19132 -47.21937,61.16729 -60.09821,72.39261 -10.20614,-10.15624 -60.09821,-39.20129 -60.09821,-72.39261 0,-33.19133 44.01214,-49.94197 60.09821,-15.19693 19.82785,-33.67596 60.09821,-17.9944 60.09821,15.19693 z"
       id="use1690"
       inkscape:connector-curvature="0"
       sodipodi:nodetypes="scscs"
       inkscape:tile-x0="-695.48854"
       inkscape:tile-y0="57.394954" />
    <path
       inkscape:export-ydpi="27.871149"
       inkscape:export-xdpi="27.871149"
       style="fill:#ff0000;stroke:none;stroke-width:3.26499987;stroke-linecap:round;stroke-linejoin:round;fill-opacity:0.58823532"
       d="m 22.099165,706.05991 c 0,33.19132 -47.21937,61.16729 -60.09821,72.39261 -10.20614,-10.15624 -60.09821,-39.20129 -60.09821,-72.39261 0,-33.19133 44.01214,-49.94197 60.09821,-15.19693 19.82785,-33.67596 60.09821,-17.9944 60.09821,15.19693 z"
       id="use1694"
       inkscape:connector-curvature="0"
       sodipodi:nodetypes="scscs"
       inkscape:tile-x0="-695.48854"
       inkscape:tile-y0="57.394954" />
    <path
       inkscape:export-ydpi="27.871149"
       inkscape:export-xdpi="27.871149"
       style="fill:#ff0000;stroke:none;stroke-width:3.26499987;stroke-linecap:round;stroke-linejoin:round;fill-opacity:0.58823532"
       d="m 22.099165,951.7536 c 0,33.19132 -47.21937,61.1673 -60.09821,72.3926 -10.20614,-10.1562 -60.09821,-39.20128 -60.09821,-72.3926 0,-33.19133 44.01214,-49.94197 60.09821,-15.19693 19.82785,-33.67596 60.09821,-17.9944 60.09821,15.19693 z"
       id="use1698"
       inkscape:connector-curvature="0"
       sodipodi:nodetypes="scscs"
       inkscape:tile-x0="-695.48854"
       inkscape:tile-y0="57.394954" />
    <path
       inkscape:export-ydpi="27.871149"
       inkscape:export-xdpi="27.871149"
       style="fill:#ff0000;stroke:none;stroke-width:3.26499987;stroke-linecap:round;stroke-linejoin:round;fill-opacity:0.58823532"
       d="m 22.099165,1197.4473 c 0,33.1913 -47.21937,61.1673 -60.09821,72.3926 -10.20614,-10.1562 -60.09821,-39.2013 -60.09821,-72.3926 0,-33.1913 44.01214,-49.942 60.09821,-15.1969 19.82785,-33.676 60.09821,-17.9944 60.09821,15.1969 z"
       id="use1702"
       inkscape:connector-curvature="0"
       sodipodi:nodetypes="scscs"
       inkscape:tile-x0="-695.48854"
       inkscape:tile-y0="57.394954" />
    <path
       inkscape:export-ydpi="27.871149"
       inkscape:export-xdpi="27.871149"
       style="fill:#ff0000;stroke:none;stroke-width:3.26499987;stroke-linecap:round;stroke-linejoin:round;fill-opacity:0.58823532"
       d="m 22.099165,1443.141 c 0,33.1913 -47.21937,61.1673 -60.09821,72.3926 -10.20614,-10.1562 -60.09821,-39.2013 -60.09821,-72.3926 0,-33.1913 44.01214,-49.942 60.09821,-15.1969 19.82785,-33.676 60.09821,-17.9944 60.09821,15.1969 z"
       id="use1706"
       inkscape:connector-curvature="0"
       sodipodi:nodetypes="scscs"
       inkscape:tile-x0="-695.48854"
       inkscape:tile-y0="57.394954" />
    <path
       inkscape:export-ydpi="27.863033"
       inkscape:export-xdpi="27.863033"
       inkscape:tile-y0="57.394954"
       inkscape:tile-x0="-695.48854"
       sodipodi:nodetypes="scscs"
       inkscape:connector-curvature="0"
       id="path1854"
       d="m 313.70785,214.67253 c 0,33.19132 -47.21937,61.16729 -60.09821,72.39261 -10.20614,-10.15624 -60.09821,-39.20129 -60.09821,-72.39261 0,-33.19133 44.01214,-49.94197 60.09821,-15.19693 19.82785,-33.67596 60.09821,-17.9944 60.09821,15.19693 z"
       style="fill:#ff0000;stroke:none;stroke-width:3.26499987;stroke-linecap:round;stroke-linejoin:round;fill-opacity:0.58823532" />
    <path
       inkscape:export-ydpi="27.863033"
       inkscape:export-xdpi="27.863033"
       inkscape:tile-y0="57.394954"
       inkscape:tile-x0="-695.48854"
       sodipodi:nodetypes="scscs"
       inkscape:connector-curvature="0"
       id="path1858"
       d="m 313.70785,460.36622 c 0,33.19132 -47.21937,61.16729 -60.09821,72.39261 -10.20614,-10.15624 -60.09821,-39.20129 -60.09821,-72.39261 0,-33.19133 44.01214,-49.94197 60.09821,-15.19693 19.82785,-33.67596 60.09821,-17.9944 60.09821,15.19693 z"
       style="fill:#ff0000;stroke:none;stroke-width:3.26499987;stroke-linecap:round;stroke-linejoin:round;fill-opacity:0.58823532" />
    <path
       inkscape:export-ydpi="27.863033"
       inkscape:export-xdpi="27.863033"
       inkscape:tile-y0="57.394954"
       inkscape:tile-x0="-695.48854"
       sodipodi:nodetypes="scscs"
       inkscape:connector-curvature="0"
       id="path1862"
       d="m 313.70785,706.05991 c 0,33.19132 -47.21937,61.16729 -60.09821,72.39261 -10.20614,-10.15624 -60.09821,-39.20129 -60.09821,-72.39261 0,-33.19133 44.01214,-49.94197 60.09821,-15.19693 19.82785,-33.67596 60.09821,-17.9944 60.09821,15.19693 z"
       style="fill:#ff0000;stroke:none;stroke-width:3.26499987;stroke-linecap:round;stroke-linejoin:round;fill-opacity:0.58823532" />
    <path
       inkscape:export-ydpi="27.863033"
       inkscape:export-xdpi="27.863033"
       inkscape:tile-y0="57.394954"
       inkscape:tile-x0="-695.48854"
       sodipodi:nodetypes="scscs"
       inkscape:connector-curvature="0"
       id="path1866"
       d="m 313.70785,951.7536 c 0,33.19132 -47.21937,61.1673 -60.09821,72.3926 -10.20614,-10.1562 -60.09821,-39.20128 -60.09821,-72.3926 0,-33.19133 44.01214,-49.94197 60.09821,-15.19693 19.82785,-33.67596 60.09821,-17.9944 60.09821,15.19693 z"
       style="fill:#ff0000;stroke:none;stroke-width:3.26499987;stroke-linecap:round;stroke-linejoin:round;fill-opacity:0.58823532" />
    <path
       inkscape:export-ydpi="27.863033"
       inkscape:export-xdpi="27.863033"
       inkscape:tile-y0="57.394954"
       inkscape:tile-x0="-695.48854"
       sodipodi:nodetypes="scscs"
       inkscape:connector-curvature="0"
       id="path1870"
       d="m 313.70785,1197.4473 c 0,33.1913 -47.21937,61.1673 -60.09821,72.3926 -10.20614,-10.1562 -60.09821,-39.2013 -60.09821,-72.3926 0,-33.1913 44.01214,-49.942 60.09821,-15.1969 19.82785,-33.676 60.09821,-17.9944 60.09821,15.1969 z"
       style="fill:#ff0000;stroke:none;stroke-width:3.26499987;stroke-linecap:round;stroke-linejoin:round;fill-opacity:0.58823532" />
    <path
       inkscape:export-ydpi="27.863033"
       inkscape:export-xdpi="27.863033"
       inkscape:tile-y0="57.394954"
       inkscape:tile-x0="-695.48854"
       sodipodi:nodetypes="scscs"
       inkscape:connector-curvature="0"
       id="path1874"
       d="m 313.70785,1443.141 c 0,33.1913 -47.21937,61.1673 -60.09821,72.3926 -10.20614,-10.1562 -60.09821,-39.2013 -60.09821,-72.3926 0,-33.1913 44.01214,-49.942 60.09821,-15.1969 19.82785,-33.676 60.09821,-17.9944 60.09821,15.1969 z"
       style="fill:#ff0000;stroke:none;stroke-width:3.26499987;stroke-linecap:round;stroke-linejoin:round;fill-opacity:0.58823532" />
    <path
       inkscape:export-ydpi="27.863033"
       inkscape:export-xdpi="27.863033"
       inkscape:tile-y0="57.394954"
       inkscape:tile-x0="-695.48854"
       sodipodi:nodetypes="scscs"
       inkscape:connector-curvature="0"
       id="path1876"
       d="m 451.93373,91.825688 c 0,33.191322 -47.21937,61.167292 -60.09821,72.392612 -10.20614,-10.15624 -60.09821,-39.20129 -60.09821,-72.392612 0,-33.191325 44.01214,-49.941969 60.09821,-15.19693 19.82785,-33.675961 60.09821,-17.994395 60.09821,15.19693 z"
       style="fill:#ff0000;stroke:none;stroke-width:3.26499987;stroke-linecap:round;stroke-linejoin:round;fill-opacity:0.58823532" />
    <path
       inkscape:export-ydpi="27.863033"
       inkscape:export-xdpi="27.863033"
       inkscape:tile-y0="57.394954"
       inkscape:tile-x0="-695.48854"
       sodipodi:nodetypes="scscs"
       inkscape:connector-curvature="0"
       id="path1880"
       d="m 451.93373,337.51938 c 0,33.19132 -47.21937,61.16729 -60.09821,72.39261 -10.20614,-10.15624 -60.09821,-39.20129 -60.09821,-72.39261 0,-33.19133 44.01214,-49.94197 60.09821,-15.19693 19.82785,-33.67596 60.09821,-17.9944 60.09821,15.19693 z"
       style="fill:#ff0000;stroke:none;stroke-width:3.26499987;stroke-linecap:round;stroke-linejoin:round;fill-opacity:0.58823532" />
    <path
       inkscape:export-ydpi="27.863033"
       inkscape:export-xdpi="27.863033"
       inkscape:tile-y0="57.394954"
       inkscape:tile-x0="-695.48854"
       sodipodi:nodetypes="scscs"
       inkscape:connector-curvature="0"
       id="path1884"
       d="m 451.93373,583.21306 c 0,33.19132 -47.21937,61.16729 -60.09821,72.39261 -10.20614,-10.15624 -60.09821,-39.20129 -60.09821,-72.39261 0,-33.19133 44.01214,-49.94197 60.09821,-15.19693 19.82785,-33.67596 60.09821,-17.9944 60.09821,15.19693 z"
       style="fill:#ff0000;stroke:none;stroke-width:3.26499987;stroke-linecap:round;stroke-linejoin:round;fill-opacity:0.58823532" />
    <path
       inkscape:export-ydpi="27.863033"
       inkscape:export-xdpi="27.863033"
       inkscape:tile-y0="57.394954"
       inkscape:tile-x0="-695.48854"
       sodipodi:nodetypes="scscs"
       inkscape:connector-curvature="0"
       id="path1888"
       d="m 451.93373,828.90675 c 0,33.19132 -47.21937,61.16729 -60.09821,72.39261 -10.20614,-10.15624 -60.09821,-39.20129 -60.09821,-72.39261 0,-33.19133 44.01214,-49.94197 60.09821,-15.19693 19.82785,-33.67596 60.09821,-17.9944 60.09821,15.19693 z"
       style="fill:#ff0000;stroke:none;stroke-width:3.26499987;stroke-linecap:round;stroke-linejoin:round;fill-opacity:0.58823532" />
    <path
       inkscape:export-ydpi="27.863033"
       inkscape:export-xdpi="27.863033"
       inkscape:tile-y0="57.394954"
       inkscape:tile-x0="-695.48854"
       sodipodi:nodetypes="scscs"
       inkscape:connector-curvature="0"
       id="path1892"
       d="m 451.93373,1074.6004 c 0,33.1914 -47.21937,61.1673 -60.09821,72.3927 -10.20614,-10.1563 -60.09821,-39.2013 -60.09821,-72.3927 0,-33.1913 44.01214,-49.9419 60.09821,-15.1969 19.82785,-33.676 60.09821,-17.9944 60.09821,15.1969 z"
       style="fill:#ff0000;stroke:none;stroke-width:3.26499987;stroke-linecap:round;stroke-linejoin:round;fill-opacity:0.58823532" />
    <path
       inkscape:export-ydpi="27.863033"
       inkscape:export-xdpi="27.863033"
       inkscape:tile-y0="57.394954"
       inkscape:tile-x0="-695.48854"
       sodipodi:nodetypes="scscs"
       inkscape:connector-curvature="0"
       id="path1896"
       d="m 451.93373,1320.2941 c 0,33.1913 -47.21937,61.1673 -60.09821,72.3926 -10.20614,-10.1562 -60.09821,-39.2013 -60.09821,-72.3926 0,-33.1913 44.01214,-49.942 60.09821,-15.1969 19.82785,-33.676 60.09821,-17.9944 60.09821,15.1969 z"
       style="fill:#ff0000;stroke:none;stroke-width:3.26499987;stroke-linecap:round;stroke-linejoin:round;fill-opacity:0.58823532" />
    <path
       inkscape:export-ydpi="27.863033"
       inkscape:export-xdpi="27.863033"
       inkscape:tile-y0="57.394954"
       inkscape:tile-x0="-695.48854"
       sodipodi:nodetypes="scscs"
       inkscape:connector-curvature="0"
       id="path1902"
       d="m 590.15961,214.67253 c 0,33.19132 -47.21937,61.16729 -60.09821,72.39261 -10.20614,-10.15624 -60.09821,-39.20129 -60.09821,-72.39261 0,-33.19133 44.01214,-49.94197 60.09821,-15.19693 19.82785,-33.67596 60.09821,-17.9944 60.09821,15.19693 z"
       style="fill:#ff0000;stroke:none;stroke-width:3.26499987;stroke-linecap:round;stroke-linejoin:round;fill-opacity:0.58823532" />
    <path
       inkscape:export-ydpi="27.863033"
       inkscape:export-xdpi="27.863033"
       inkscape:tile-y0="57.394954"
       inkscape:tile-x0="-695.48854"
       sodipodi:nodetypes="scscs"
       inkscape:connector-curvature="0"
       id="path1906"
       d="m 590.15961,460.36622 c 0,33.19132 -47.21937,61.16729 -60.09821,72.39261 -10.20614,-10.15624 -60.09821,-39.20129 -60.09821,-72.39261 0,-33.19133 44.01214,-49.94197 60.09821,-15.19693 19.82785,-33.67596 60.09821,-17.9944 60.09821,15.19693 z"
       style="fill:#ff0000;stroke:none;stroke-width:3.26499987;stroke-linecap:round;stroke-linejoin:round;fill-opacity:0.58823532" />
    <path
       inkscape:export-ydpi="27.863033"
       inkscape:export-xdpi="27.863033"
       inkscape:tile-y0="57.394954"
       inkscape:tile-x0="-695.48854"
       sodipodi:nodetypes="scscs"
       inkscape:connector-curvature="0"
       id="path1910"
       d="m 590.15961,706.05991 c 0,33.19132 -47.21937,61.16729 -60.09821,72.39261 -10.20614,-10.15624 -60.09821,-39.20129 -60.09821,-72.39261 0,-33.19133 44.01214,-49.94197 60.09821,-15.19693 19.82785,-33.67596 60.09821,-17.9944 60.09821,15.19693 z"
       style="fill:#ff0000;stroke:none;stroke-width:3.26499987;stroke-linecap:round;stroke-linejoin:round;fill-opacity:0.58823532" />
    <path
       inkscape:export-ydpi="27.863033"
       inkscape:export-xdpi="27.863033"
       inkscape:tile-y0="57.394954"
       inkscape:tile-x0="-695.48854"
       sodipodi:nodetypes="scscs"
       inkscape:connector-curvature="0"
       id="path1914"
       d="m 590.15961,951.7536 c 0,33.19132 -47.21937,61.1673 -60.09821,72.3926 -10.20614,-10.1562 -60.09821,-39.20128 -60.09821,-72.3926 0,-33.19133 44.01214,-49.94197 60.09821,-15.19693 19.82785,-33.67596 60.09821,-17.9944 60.09821,15.19693 z"
       style="fill:#ff0000;stroke:none;stroke-width:3.26499987;stroke-linecap:round;stroke-linejoin:round;fill-opacity:0.58823532" />
    <path
       inkscape:export-ydpi="27.863033"
       inkscape:export-xdpi="27.863033"
       inkscape:tile-y0="57.394954"
       inkscape:tile-x0="-695.48854"
       sodipodi:nodetypes="scscs"
       inkscape:connector-curvature="0"
       id="path1918"
       d="m 590.15961,1197.4473 c 0,33.1913 -47.21937,61.1673 -60.09821,72.3926 -10.20614,-10.1562 -60.09821,-39.2013 -60.09821,-72.3926 0,-33.1913 44.01214,-49.942 60.09821,-15.1969 19.82785,-33.676 60.09821,-17.9944 60.09821,15.1969 z"
       style="fill:#ff0000;stroke:none;stroke-width:3.26499987;stroke-linecap:round;stroke-linejoin:round;fill-opacity:0.58823532" />
    <path
       inkscape:export-ydpi="27.863033"
       inkscape:export-xdpi="27.863033"
       inkscape:tile-y0="57.394954"
       inkscape:tile-x0="-695.48854"
       sodipodi:nodetypes="scscs"
       inkscape:connector-curvature="0"
       id="path1922"
       d="m 590.15961,1443.141 c 0,33.1913 -47.21937,61.1673 -60.09821,72.3926 -10.20614,-10.1562 -60.09821,-39.2013 -60.09821,-72.3926 0,-33.1913 44.01214,-49.942 60.09821,-15.1969 19.82785,-33.676 60.09821,-17.9944 60.09821,15.1969 z"
       style="fill:#ff0000;stroke:none;stroke-width:3.26499987;stroke-linecap:round;stroke-linejoin:round;fill-opacity:0.58823532" />
    <path
       inkscape:export-ydpi="27.863033"
       inkscape:export-xdpi="27.863033"
       inkscape:tile-y0="57.394954"
       inkscape:tile-x0="-695.48854"
       sodipodi:nodetypes="scscs"
       inkscape:connector-curvature="0"
       id="path1924"
       d="m 728.38549,91.825688 c 0,33.191322 -47.21937,61.167292 -60.09821,72.392612 -10.20614,-10.15624 -60.09821,-39.20129 -60.09821,-72.392612 0,-33.191325 44.01214,-49.941969 60.09821,-15.19693 19.82785,-33.675961 60.09821,-17.994395 60.09821,15.19693 z"
       style="fill:#ff0000;stroke:none;stroke-width:3.26499987;stroke-linecap:round;stroke-linejoin:round;fill-opacity:0.58823532" />
    <path
       inkscape:export-ydpi="27.863033"
       inkscape:export-xdpi="27.863033"
       inkscape:tile-y0="57.394954"
       inkscape:tile-x0="-695.48854"
       sodipodi:nodetypes="scscs"
       inkscape:connector-curvature="0"
       id="path1928"
       d="m 728.38549,337.51938 c 0,33.19132 -47.21937,61.16729 -60.09821,72.39261 -10.20614,-10.15624 -60.09821,-39.20129 -60.09821,-72.39261 0,-33.19133 44.01214,-49.94197 60.09821,-15.19693 19.82785,-33.67596 60.09821,-17.9944 60.09821,15.19693 z"
       style="fill:#ff0000;stroke:none;stroke-width:3.26499987;stroke-linecap:round;stroke-linejoin:round;fill-opacity:0.58823532" />
    <path
       inkscape:export-ydpi="27.863033"
       inkscape:export-xdpi="27.863033"
       inkscape:tile-y0="57.394954"
       inkscape:tile-x0="-695.48854"
       sodipodi:nodetypes="scscs"
       inkscape:connector-curvature="0"
       id="path1932"
       d="m 728.38549,583.21306 c 0,33.19132 -47.21937,61.16729 -60.09821,72.39261 -10.20614,-10.15624 -60.09821,-39.20129 -60.09821,-72.39261 0,-33.19133 44.01214,-49.94197 60.09821,-15.19693 19.82785,-33.67596 60.09821,-17.9944 60.09821,15.19693 z"
       style="fill:#ff0000;stroke:none;stroke-width:3.26499987;stroke-linecap:round;stroke-linejoin:round;fill-opacity:0.58823532" />
    <path
       inkscape:export-ydpi="27.863033"
       inkscape:export-xdpi="27.863033"
       inkscape:tile-y0="57.394954"
       inkscape:tile-x0="-695.48854"
       sodipodi:nodetypes="scscs"
       inkscape:connector-curvature="0"
       id="path1936"
       d="m 728.38549,828.90675 c 0,33.19132 -47.21937,61.16729 -60.09821,72.39261 -10.20614,-10.15624 -60.09821,-39.20129 -60.09821,-72.39261 0,-33.19133 44.01214,-49.94197 60.09821,-15.19693 19.82785,-33.67596 60.09821,-17.9944 60.09821,15.19693 z"
       style="fill:#ff0000;stroke:none;stroke-width:3.26499987;stroke-linecap:round;stroke-linejoin:round;fill-opacity:0.58823532" />
    <path
       inkscape:export-ydpi="27.863033"
       inkscape:export-xdpi="27.863033"
       inkscape:tile-y0="57.394954"
       inkscape:tile-x0="-695.48854"
       sodipodi:nodetypes="scscs"
       inkscape:connector-curvature="0"
       id="path1940"
       d="m 728.38549,1074.6004 c 0,33.1914 -47.21937,61.1673 -60.09821,72.3927 -10.20614,-10.1563 -60.09821,-39.2013 -60.09821,-72.3927 0,-33.1913 44.01214,-49.9419 60.09821,-15.1969 19.82785,-33.676 60.09821,-17.9944 60.09821,15.1969 z"
       style="fill:#ff0000;stroke:none;stroke-width:3.26499987;stroke-linecap:round;stroke-linejoin:round;fill-opacity:0.58823532" />
    <path
       inkscape:export-ydpi="27.863033"
       inkscape:export-xdpi="27.863033"
       inkscape:tile-y0="57.394954"
       inkscape:tile-x0="-695.48854"
       sodipodi:nodetypes="scscs"
       inkscape:connector-curvature="0"
       id="path1944"
       d="m 728.38549,1320.2941 c 0,33.1913 -47.21937,61.1673 -60.09821,72.3926 -10.20614,-10.1562 -60.09821,-39.2013 -60.09821,-72.3926 0,-33.1913 44.01214,-49.942 60.09821,-15.1969 19.82785,-33.676 60.09821,-17.9944 60.09821,15.1969 z"
       style="fill:#ff0000;stroke:none;stroke-width:3.26499987;stroke-linecap:round;stroke-linejoin:round;fill-opacity:0.58823532" />
    <path
       inkscape:export-ydpi="27.863033"
       inkscape:export-xdpi="27.863033"
       inkscape:tile-y0="57.394954"
       inkscape:tile-x0="-695.48854"
       sodipodi:nodetypes="scscs"
       inkscape:connector-curvature="0"
       id="path1950"
       d="m 866.61137,214.67253 c 0,33.19132 -47.21937,61.16729 -60.09821,72.39261 -10.20614,-10.15624 -60.09821,-39.20129 -60.09821,-72.39261 0,-33.19133 44.01214,-49.94197 60.09821,-15.19693 19.82785,-33.67596 60.09821,-17.9944 60.09821,15.19693 z"
       style="fill:#ff0000;stroke:none;stroke-width:3.26499987;stroke-linecap:round;stroke-linejoin:round;fill-opacity:0.58823532" />
    <path
       inkscape:export-ydpi="27.863033"
       inkscape:export-xdpi="27.863033"
       inkscape:tile-y0="57.394954"
       inkscape:tile-x0="-695.48854"
       sodipodi:nodetypes="scscs"
       inkscape:connector-curvature="0"
       id="path1954"
       d="m 866.61137,460.36622 c 0,33.19132 -47.21937,61.16729 -60.09821,72.39261 -10.20614,-10.15624 -60.09821,-39.20129 -60.09821,-72.39261 0,-33.19133 44.01214,-49.94197 60.09821,-15.19693 19.82785,-33.67596 60.09821,-17.9944 60.09821,15.19693 z"
       style="fill:#ff0000;stroke:none;stroke-width:3.26499987;stroke-linecap:round;stroke-linejoin:round;fill-opacity:0.58823532" />
    <path
       inkscape:export-ydpi="27.863033"
       inkscape:export-xdpi="27.863033"
       inkscape:tile-y0="57.394954"
       inkscape:tile-x0="-695.48854"
       sodipodi:nodetypes="scscs"
       inkscape:connector-curvature="0"
       id="path1958"
       d="m 866.61137,706.05991 c 0,33.19132 -47.21937,61.16729 -60.09821,72.39261 -10.20614,-10.15624 -60.09821,-39.20129 -60.09821,-72.39261 0,-33.19133 44.01214,-49.94197 60.09821,-15.19693 19.82785,-33.67596 60.09821,-17.9944 60.09821,15.19693 z"
       style="fill:#ff0000;stroke:none;stroke-width:3.26499987;stroke-linecap:round;stroke-linejoin:round;fill-opacity:0.58823532" />
    <path
       inkscape:export-ydpi="27.863033"
       inkscape:export-xdpi="27.863033"
       inkscape:tile-y0="57.394954"
       inkscape:tile-x0="-695.48854"
       sodipodi:nodetypes="scscs"
       inkscape:connector-curvature="0"
       id="path1962"
       d="m 866.61137,951.7536 c 0,33.19132 -47.21937,61.1673 -60.09821,72.3926 -10.20614,-10.1562 -60.09821,-39.20128 -60.09821,-72.3926 0,-33.19133 44.01214,-49.94197 60.09821,-15.19693 19.82785,-33.67596 60.09821,-17.9944 60.09821,15.19693 z"
       style="fill:#ff0000;stroke:none;stroke-width:3.26499987;stroke-linecap:round;stroke-linejoin:round;fill-opacity:0.58823532" />
    <path
       inkscape:export-ydpi="27.863033"
       inkscape:export-xdpi="27.863033"
       inkscape:tile-y0="57.394954"
       inkscape:tile-x0="-695.48854"
       sodipodi:nodetypes="scscs"
       inkscape:connector-curvature="0"
       id="path1966"
       d="m 866.61137,1197.4473 c 0,33.1913 -47.21937,61.1673 -60.09821,72.3926 -10.20614,-10.1562 -60.09821,-39.2013 -60.09821,-72.3926 0,-33.1913 44.01214,-49.942 60.09821,-15.1969 19.82785,-33.676 60.09821,-17.9944 60.09821,15.1969 z"
       style="fill:#ff0000;stroke:none;stroke-width:3.26499987;stroke-linecap:round;stroke-linejoin:round;fill-opacity:0.58823532" />
    <path
       inkscape:export-ydpi="27.863033"
       inkscape:export-xdpi="27.863033"
       inkscape:tile-y0="57.394954"
       inkscape:tile-x0="-695.48854"
       sodipodi:nodetypes="scscs"
       inkscape:connector-curvature="0"
       id="path1970"
       d="m 866.61137,1443.141 c 0,33.1913 -47.21937,61.1673 -60.09821,72.3926 -10.20614,-10.1562 -60.09821,-39.2013 -60.09821,-72.3926 0,-33.1913 44.01214,-49.942 60.09821,-15.1969 19.82785,-33.676 60.09821,-17.9944 60.09821,15.1969 z"
       style="fill:#ff0000;stroke:none;stroke-width:3.26499987;stroke-linecap:round;stroke-linejoin:round;fill-opacity:0.58823532" />
    <path
       inkscape:export-ydpi="27.863033"
       inkscape:export-xdpi="27.863033"
       inkscape:tile-y0="57.394954"
       inkscape:tile-x0="-695.48854"
       sodipodi:nodetypes="scscs"
       inkscape:connector-curvature="0"
       id="path1972"
       d="m 1004.8373,91.825688 c 0,33.191322 -47.21941,61.167292 -60.09825,72.392612 -10.20614,-10.15624 -60.09821,-39.20129 -60.09821,-72.392612 0,-33.191325 44.01214,-49.941969 60.09821,-15.19693 19.82785,-33.675961 60.09825,-17.994395 60.09825,15.19693 z"
       style="fill:#ff0000;stroke:none;stroke-width:3.26499987;stroke-linecap:round;stroke-linejoin:round;fill-opacity:0.58823532" />
    <path
       inkscape:export-ydpi="27.863033"
       inkscape:export-xdpi="27.863033"
       inkscape:tile-y0="57.394954"
       inkscape:tile-x0="-695.48854"
       sodipodi:nodetypes="scscs"
       inkscape:connector-curvature="0"
       id="path1976"
       d="m 1004.8373,337.51938 c 0,33.19132 -47.21941,61.16729 -60.09825,72.39261 -10.20614,-10.15624 -60.09821,-39.20129 -60.09821,-72.39261 0,-33.19133 44.01214,-49.94197 60.09821,-15.19693 19.82785,-33.67596 60.09825,-17.9944 60.09825,15.19693 z"
       style="fill:#ff0000;stroke:none;stroke-width:3.26499987;stroke-linecap:round;stroke-linejoin:round;fill-opacity:0.58823532" />
    <path
       inkscape:export-ydpi="27.863033"
       inkscape:export-xdpi="27.863033"
       inkscape:tile-y0="57.394954"
       inkscape:tile-x0="-695.48854"
       sodipodi:nodetypes="scscs"
       inkscape:connector-curvature="0"
       id="path1980"
       d="m 1004.8373,583.21306 c 0,33.19132 -47.21941,61.16729 -60.09825,72.39261 -10.20614,-10.15624 -60.09821,-39.20129 -60.09821,-72.39261 0,-33.19133 44.01214,-49.94197 60.09821,-15.19693 19.82785,-33.67596 60.09825,-17.9944 60.09825,15.19693 z"
       style="fill:#ff0000;stroke:none;stroke-width:3.26499987;stroke-linecap:round;stroke-linejoin:round;fill-opacity:0.58823532" />
    <path
       inkscape:export-ydpi="27.863033"
       inkscape:export-xdpi="27.863033"
       inkscape:tile-y0="57.394954"
       inkscape:tile-x0="-695.48854"
       sodipodi:nodetypes="scscs"
       inkscape:connector-curvature="0"
       id="path1984"
       d="m 1004.8373,828.90675 c 0,33.19132 -47.21941,61.16729 -60.09825,72.39261 -10.20614,-10.15624 -60.09821,-39.20129 -60.09821,-72.39261 0,-33.19133 44.01214,-49.94197 60.09821,-15.19693 19.82785,-33.67596 60.09825,-17.9944 60.09825,15.19693 z"
       style="fill:#ff0000;stroke:none;stroke-width:3.26499987;stroke-linecap:round;stroke-linejoin:round;fill-opacity:0.58823532" />
    <path
       inkscape:export-ydpi="27.863033"
       inkscape:export-xdpi="27.863033"
       inkscape:tile-y0="57.394954"
       inkscape:tile-x0="-695.48854"
       sodipodi:nodetypes="scscs"
       inkscape:connector-curvature="0"
       id="path1988"
       d="m 1004.8373,1074.6004 c 0,33.1914 -47.21941,61.1673 -60.09825,72.3927 -10.20614,-10.1563 -60.09821,-39.2013 -60.09821,-72.3927 0,-33.1913 44.01214,-49.9419 60.09821,-15.1969 19.82785,-33.676 60.09825,-17.9944 60.09825,15.1969 z"
       style="fill:#ff0000;stroke:none;stroke-width:3.26499987;stroke-linecap:round;stroke-linejoin:round;fill-opacity:0.58823532" />
    <path
       inkscape:export-ydpi="27.863033"
       inkscape:export-xdpi="27.863033"
       inkscape:tile-y0="57.394954"
       inkscape:tile-x0="-695.48854"
       sodipodi:nodetypes="scscs"
       inkscape:connector-curvature="0"
       id="path1992"
       d="m 1004.8373,1320.2941 c 0,33.1913 -47.21941,61.1673 -60.09825,72.3926 -10.20614,-10.1562 -60.09821,-39.2013 -60.09821,-72.3926 0,-33.1913 44.01214,-49.942 60.09821,-15.1969 19.82785,-33.676 60.09825,-17.9944 60.09825,15.1969 z"
       style="fill:#ff0000;stroke:none;stroke-width:3.26499987;stroke-linecap:round;stroke-linejoin:round;fill-opacity:0.58823532" />
    <path
       inkscape:export-ydpi="84.4104"
       inkscape:export-xdpi="84.4104"
       transform="scale(0.26458333)"
       d="M -1624.3262 -2044.5488 L -1624.3262 -137.38086 L -121.21875 -137.38086 L -121.21875 -2044.5488 L -1624.3262 -2044.5488 z M -1043.543 -1734.2168 C -975.50259 -1734.563 -907.29047 -1697.5941 -866.64258 -1609.7969 C -738.37887 -1827.6422 -477.875 -1726.2005 -477.875 -1511.4902 C -477.875 -1296.78 -783.33109 -1115.8085 -866.64258 -1043.1934 C -932.66473 -1108.8927 -1255.4082 -1296.78 -1255.4082 -1511.4902 C -1255.4082 -1642.3293 -1149.686 -1733.6768 -1043.543 -1734.2168 z "
       style="fill:#ffaaaa;fill-opacity:1;stroke:none;stroke-width:17.5188;stroke-linecap:round;stroke-linejoin:round"
       id="rect904" />
  </g>
</svg>
